<mxfile host="drawio-plugin" modified="2021-12-02T04:48:55.856Z" agent="5.0 (Macintosh; Intel Mac OS X 11_5_2) AppleWebKit/537.36 (KHTML, like Gecko) Chrome/89.0.4389.114 Safari/537.36" version="14.7.4" etag="zIW2MM3bmRT-_Tr3oal9" type="embed"><diagram id="vY6yj51IqHpsYbsFR2fq" name="Page-1"><mxGraphModel dx="2751" dy="2172" grid="1" gridSize="10" guides="1" tooltips="1" connect="1" arrows="1" fold="1" page="1" pageScale="1" pageWidth="827" pageHeight="1169" math="0" shadow="0"><root><mxCell id="0"/><mxCell id="1" parent="0"/><mxCell id="22" value="MainWindow" style="swimlane;fontStyle=1;align=center;verticalAlign=top;childLayout=stackLayout;horizontal=1;startSize=26;horizontalStack=0;resizeParent=1;resizeParentMax=0;resizeLast=0;collapsible=1;marginBottom=0;" parent="1" vertex="1"><mxGeometry x="1660" y="-90" width="250" height="170" as="geometry"/></mxCell><mxCell id="23" value="- tabbedWindows: QTabWidget&#10;- sets: setsGUI &#10;- calculator: calculatorGUI&#10;- matrix: matrixGUI&#10;- graph: graphGUI" style="text;strokeColor=none;fillColor=none;align=left;verticalAlign=top;spacingLeft=4;spacingRight=4;overflow=hidden;rotatable=0;points=[[0,0.5],[1,0.5]];portConstraint=eastwest;" parent="22" vertex="1"><mxGeometry y="26" width="250" height="84" as="geometry"/></mxCell><mxCell id="24" value="" style="line;strokeWidth=1;fillColor=none;align=left;verticalAlign=middle;spacingTop=-1;spacingLeft=3;spacingRight=3;rotatable=0;labelPosition=right;points=[];portConstraint=eastwest;" parent="22" vertex="1"><mxGeometry y="110" width="250" height="20" as="geometry"/></mxCell><mxCell id="25" value="+ mainwindow(parent: QWidget): constructor " style="text;strokeColor=none;fillColor=none;align=left;verticalAlign=top;spacingLeft=4;spacingRight=4;overflow=hidden;rotatable=0;points=[[0,0.5],[1,0.5]];portConstraint=eastwest;" parent="22" vertex="1"><mxGeometry y="130" width="250" height="40" as="geometry"/></mxCell><mxCell id="30" value="ButtonResponder" style="swimlane;fontStyle=1;align=center;verticalAlign=top;childLayout=stackLayout;horizontal=1;startSize=26;horizontalStack=0;resizeParent=1;resizeParentMax=0;resizeLast=0;collapsible=1;marginBottom=0;" parent="1" vertex="1"><mxGeometry x="520" y="-90" width="840" height="104" as="geometry"/></mxCell><mxCell id="32" value="" style="line;strokeWidth=1;fillColor=none;align=left;verticalAlign=middle;spacingTop=-1;spacingLeft=3;spacingRight=3;rotatable=0;labelPosition=right;points=[];portConstraint=eastwest;" parent="30" vertex="1"><mxGeometry y="26" width="840" height="8" as="geometry"/></mxCell><mxCell id="33" value="+ solveMatrixButtonResponse(matrix1: vector&lt;vector&lt;double&gt;&gt;, matrix2:vector&lt;vector&lt;double&gt;&gt;, operations[3]: char,scalar1: double, scalar2: double): void&#10;+ solveEquationButtonResponse(equation string): void &#10;+  solveSysOfLinearEqnButtonResponse(equations: vector&lt;string&gt;): void &#10;+ solveSetButtonResponse(set1:string, set2: string, operations vector&lt;char&gt;: void   " style="text;strokeColor=none;fillColor=none;align=left;verticalAlign=top;spacingLeft=4;spacingRight=4;overflow=hidden;rotatable=0;points=[[0,0.5],[1,0.5]];portConstraint=eastwest;" parent="30" vertex="1"><mxGeometry y="34" width="840" height="70" as="geometry"/></mxCell><mxCell id="34" value="" style="endArrow=none;dashed=1;html=1;startArrow=none;" parent="1" edge="1"><mxGeometry width="50" height="50" relative="1" as="geometry"><mxPoint x="440" y="2120" as="sourcePoint"/><mxPoint x="440" y="-280" as="targetPoint"/><Array as="points"/></mxGeometry></mxCell><mxCell id="37" value="CONTROLLER" style="shape=note2;boundedLbl=1;whiteSpace=wrap;html=1;size=25;verticalAlign=top;align=center;" parent="1" vertex="1"><mxGeometry x="865" y="-250" width="120" height="60" as="geometry"/></mxCell><mxCell id="38" value="MODEL" style="shape=note2;boundedLbl=1;whiteSpace=wrap;html=1;size=25;verticalAlign=top;align=center;" parent="1" vertex="1"><mxGeometry x="-130" y="-150" width="120" height="60" as="geometry"/></mxCell><mxCell id="39" value="VIEW" style="shape=note2;boundedLbl=1;whiteSpace=wrap;html=1;size=25;verticalAlign=top;align=center;" parent="1" vertex="1"><mxGeometry x="1680" y="-220" width="120" height="60" as="geometry"/></mxCell><mxCell id="46" value="Lexer" style="swimlane;fontStyle=1;align=center;verticalAlign=top;childLayout=stackLayout;horizontal=1;startSize=26;horizontalStack=0;resizeParent=1;resizeParentMax=0;resizeLast=0;collapsible=1;marginBottom=0;" parent="1" vertex="1"><mxGeometry x="-120" y="230" width="220" height="220" as="geometry"/></mxCell><mxCell id="47" value="- expr: string&#10;- position: int&#10;- currChar: char&#10;" style="text;strokeColor=none;fillColor=none;align=left;verticalAlign=top;spacingLeft=4;spacingRight=4;overflow=hidden;rotatable=0;points=[[0,0.5],[1,0.5]];portConstraint=eastwest;" parent="46" vertex="1"><mxGeometry y="26" width="220" height="54" as="geometry"/></mxCell><mxCell id="48" value="" style="line;strokeWidth=1;fillColor=none;align=left;verticalAlign=middle;spacingTop=-1;spacingLeft=3;spacingRight=3;rotatable=0;labelPosition=right;points=[];portConstraint=eastwest;" parent="46" vertex="1"><mxGeometry y="80" width="220" height="8" as="geometry"/></mxCell><mxCell id="49" value="+ Lexer(inputExpr: string): constructor&#10;+ tokenizer(): vector&lt;Token&gt; &#10;- nextChar(): void&#10;- isWhitespace(): bool&#10;- isDigit(): bool&#10;- isVariable(): bool&#10;- getNextToken(): Token&#10;- number_factorial(): Token&#10;- keyword(): Token&#10;" style="text;strokeColor=none;fillColor=none;align=left;verticalAlign=top;spacingLeft=4;spacingRight=4;overflow=hidden;rotatable=0;points=[[0,0.5],[1,0.5]];portConstraint=eastwest;" parent="46" vertex="1"><mxGeometry y="88" width="220" height="132" as="geometry"/></mxCell><mxCell id="50" value="Parser" style="swimlane;fontStyle=1;align=center;verticalAlign=top;childLayout=stackLayout;horizontal=1;startSize=26;horizontalStack=0;resizeParent=1;resizeParentMax=0;resizeLast=0;collapsible=1;marginBottom=0;" parent="1" vertex="1"><mxGeometry x="-140" y="540" width="270" height="130" as="geometry"/></mxCell><mxCell id="51" value="- root: Node" style="text;strokeColor=none;fillColor=none;align=left;verticalAlign=top;spacingLeft=4;spacingRight=4;overflow=hidden;rotatable=0;points=[[0,0.5],[1,0.5]];portConstraint=eastwest;" parent="50" vertex="1"><mxGeometry y="26" width="270" height="24" as="geometry"/></mxCell><mxCell id="52" value="" style="line;strokeWidth=1;fillColor=none;align=left;verticalAlign=middle;spacingTop=-1;spacingLeft=3;spacingRight=3;rotatable=0;labelPosition=right;points=[];portConstraint=eastwest;" parent="50" vertex="1"><mxGeometry y="50" width="270" height="8" as="geometry"/></mxCell><mxCell id="53" value="+ Parser(): constructor&#10;- ExistParentEmpty(): Node&#10;+ getRoot(): Node&#10;+ createSubTree(t: Token): tuple&lt;Node, Token&gt;" style="text;strokeColor=none;fillColor=none;align=left;verticalAlign=top;spacingLeft=4;spacingRight=4;overflow=hidden;rotatable=0;points=[[0,0.5],[1,0.5]];portConstraint=eastwest;" parent="50" vertex="1"><mxGeometry y="58" width="270" height="72" as="geometry"/></mxCell><mxCell id="365" style="edgeStyle=orthogonalEdgeStyle;rounded=0;orthogonalLoop=1;jettySize=auto;html=1;entryX=0.5;entryY=0;entryDx=0;entryDy=0;endArrow=classic;endFill=1;" parent="1" source="54" target="331" edge="1"><mxGeometry relative="1" as="geometry"><Array as="points"><mxPoint x="-80" y="1030"/><mxPoint x="-525" y="1030"/></Array></mxGeometry></mxCell><mxCell id="408" style="edgeStyle=orthogonalEdgeStyle;rounded=0;orthogonalLoop=1;jettySize=auto;html=1;endArrow=classic;endFill=1;exitX=-0.002;exitY=0;exitDx=0;exitDy=0;exitPerimeter=0;entryX=0.999;entryY=0.044;entryDx=0;entryDy=0;entryPerimeter=0;" parent="1" source="57" target="128" edge="1"><mxGeometry relative="1" as="geometry"><mxPoint x="-590" y="931" as="targetPoint"/><Array as="points"><mxPoint x="-250" y="930"/><mxPoint x="-250" y="930"/></Array></mxGeometry></mxCell><mxCell id="491" style="edgeStyle=orthogonalEdgeStyle;rounded=0;orthogonalLoop=1;jettySize=auto;html=1;" parent="1" source="54" edge="1"><mxGeometry relative="1" as="geometry"><Array as="points"><mxPoint x="-30" y="1200"/><mxPoint x="60" y="1200"/></Array><mxPoint x="59" y="1200" as="targetPoint"/></mxGeometry></mxCell><mxCell id="54" value="Interpreter" style="swimlane;fontStyle=1;align=center;verticalAlign=top;childLayout=stackLayout;horizontal=1;startSize=26;horizontalStack=0;resizeParent=1;resizeParentMax=0;resizeLast=0;collapsible=1;marginBottom=0;" parent="1" vertex="1"><mxGeometry x="-165" y="862" width="270" height="210" as="geometry"/></mxCell><mxCell id="55" value="+ deepestNode: Node&#10;+ maxDepth: int &#10;+ root: Node" style="text;strokeColor=none;fillColor=none;align=left;verticalAlign=top;spacingLeft=4;spacingRight=4;overflow=hidden;rotatable=0;points=[[0,0.5],[1,0.5]];portConstraint=eastwest;" parent="54" vertex="1"><mxGeometry y="26" width="270" height="54" as="geometry"/></mxCell><mxCell id="56" value="" style="line;strokeWidth=1;fillColor=none;align=left;verticalAlign=middle;spacingTop=-1;spacingLeft=3;spacingRight=3;rotatable=0;labelPosition=right;points=[];portConstraint=eastwest;" parent="54" vertex="1"><mxGeometry y="80" width="270" height="8" as="geometry"/></mxCell><mxCell id="57" value="+ Interpreter(ast: Node): constructor&#10;+ getSteps(): vector&lt;string&gt; &#10;+ setDeepestNode(node: Node, depth: int): void&#10;+ reduce(): void&#10;+ simplify(): void&#10;+ toString(node: Node): string&#10;+ groupPolyFunctions(node: Node): void &#10;+ groupFunctions(node: Node): void  " style="text;strokeColor=none;fillColor=none;align=left;verticalAlign=top;spacingLeft=4;spacingRight=4;overflow=hidden;rotatable=0;points=[[0,0.5],[1,0.5]];portConstraint=eastwest;" parent="54" vertex="1"><mxGeometry y="88" width="270" height="122" as="geometry"/></mxCell><mxCell id="121" value="Matrix" style="swimlane;fontStyle=1;align=center;verticalAlign=top;childLayout=stackLayout;horizontal=1;startSize=26;horizontalStack=0;resizeParent=1;resizeParentMax=0;resizeLast=0;collapsible=1;marginBottom=0;" parent="1" vertex="1"><mxGeometry x="60" y="1120" width="520" height="240" as="geometry"/></mxCell><mxCell id="122" value="- matrix: vector&lt;vector&lt;double&gt;&gt;" style="text;strokeColor=none;fillColor=none;align=left;verticalAlign=top;spacingLeft=4;spacingRight=4;overflow=hidden;rotatable=0;points=[[0,0.5],[1,0.5]];portConstraint=eastwest;" parent="121" vertex="1"><mxGeometry y="26" width="520" height="26" as="geometry"/></mxCell><mxCell id="123" value="" style="line;strokeWidth=1;fillColor=none;align=left;verticalAlign=middle;spacingTop=-1;spacingLeft=3;spacingRight=3;rotatable=0;labelPosition=right;points=[];portConstraint=eastwest;" parent="121" vertex="1"><mxGeometry y="52" width="520" height="8" as="geometry"/></mxCell><mxCell id="124" value="+ Matrix(input: vector&lt;vector&lt;double&gt;&gt;): constructor&#10;+ inverse(): Matrix&#10;+ transpose(): Matrix&#10;+ scalarMultiply(scaler: double): Matrix&#10;+ cofactor(row: int, col: int) double&#10;+ determinant(): double &#10;+ swapRows(first_row: int, second_row: int): void &#10;+ scalarMulitplyRow(row: int, scalar: double): void &#10;+ AddScalarMulitpleOfOtherRow(current_row: int, row_to_add_from: int, multiple: double): void&#10;+ reduceToRREF(): void &#10;+ isSquare(): bool &#10;+ getValues(): vector&lt;vector&lt;double&gt;&gt;&#10;" style="text;strokeColor=none;fillColor=none;align=left;verticalAlign=top;spacingLeft=4;spacingRight=4;overflow=hidden;rotatable=0;points=[[0,0.5],[1,0.5]];portConstraint=eastwest;" parent="121" vertex="1"><mxGeometry y="60" width="520" height="180" as="geometry"/></mxCell><mxCell id="125" value="Factorial" style="swimlane;fontStyle=1;align=center;verticalAlign=top;childLayout=stackLayout;horizontal=1;startSize=26;horizontalStack=0;resizeParent=1;resizeParentMax=0;resizeLast=0;collapsible=1;marginBottom=0;" parent="1" vertex="1"><mxGeometry x="-750" y="664" width="160" height="60" as="geometry"/></mxCell><mxCell id="127" value="" style="line;strokeWidth=1;fillColor=none;align=left;verticalAlign=middle;spacingTop=-1;spacingLeft=3;spacingRight=3;rotatable=0;labelPosition=right;points=[];portConstraint=eastwest;" parent="125" vertex="1"><mxGeometry y="26" width="160" height="8" as="geometry"/></mxCell><mxCell id="128" value="+ factorial(int): long" style="text;strokeColor=none;fillColor=none;align=left;verticalAlign=top;spacingLeft=4;spacingRight=4;overflow=hidden;rotatable=0;points=[[0,0.5],[1,0.5]];portConstraint=eastwest;" parent="125" vertex="1"><mxGeometry y="34" width="160" height="26" as="geometry"/></mxCell><mxCell id="133" value="Sets" style="swimlane;fontStyle=1;align=center;verticalAlign=top;childLayout=stackLayout;horizontal=1;startSize=26;horizontalStack=0;resizeParent=1;resizeParentMax=0;resizeLast=0;collapsible=1;marginBottom=0;" parent="1" vertex="1"><mxGeometry x="610" y="1475" width="380" height="80" as="geometry"/></mxCell><mxCell id="135" value="" style="line;strokeWidth=1;fillColor=none;align=left;verticalAlign=middle;spacingTop=-1;spacingLeft=3;spacingRight=3;rotatable=0;labelPosition=right;points=[];portConstraint=eastwest;" parent="133" vertex="1"><mxGeometry y="26" width="380" height="8" as="geometry"/></mxCell><mxCell id="136" value="+ Union(svector&lt;int&gt; set1, vector&lt;int&gt; set2): vector&lt;int&gt;&#10;+ intersection(set1: vector&lt;int&gt;, set2: vector&lt;int&gt;): vector&lt;int&gt;&#10;" style="text;strokeColor=none;fillColor=none;align=left;verticalAlign=top;spacingLeft=4;spacingRight=4;overflow=hidden;rotatable=0;points=[[0,0.5],[1,0.5]];portConstraint=eastwest;" parent="133" vertex="1"><mxGeometry y="34" width="380" height="46" as="geometry"/></mxCell><mxCell id="356" style="edgeStyle=orthogonalEdgeStyle;rounded=0;orthogonalLoop=1;jettySize=auto;html=1;entryX=-0.005;entryY=0.399;entryDx=0;entryDy=0;dashed=1;endArrow=block;endFill=0;entryPerimeter=0;" parent="1" source="144" target="331" edge="1"><mxGeometry relative="1" as="geometry"><Array as="points"><mxPoint x="-695" y="1427"/><mxPoint x="-695" y="1290"/><mxPoint x="-621" y="1290"/></Array></mxGeometry></mxCell><mxCell id="144" value="Polynomial" style="swimlane;fontStyle=1;align=center;verticalAlign=top;childLayout=stackLayout;horizontal=1;startSize=26;horizontalStack=0;resizeParent=1;resizeParentMax=0;resizeLast=0;collapsible=1;marginBottom=0;" parent="1" vertex="1"><mxGeometry x="-1110" y="1490" width="400" height="230" as="geometry"/></mxCell><mxCell id="145" value="- degree: int&#10;- variable: char" style="text;strokeColor=none;fillColor=none;align=left;verticalAlign=top;spacingLeft=4;spacingRight=4;overflow=hidden;rotatable=0;points=[[0,0.5],[1,0.5]];portConstraint=eastwest;" parent="144" vertex="1"><mxGeometry y="26" width="400" height="34" as="geometry"/></mxCell><mxCell id="146" value="" style="line;strokeWidth=1;fillColor=none;align=left;verticalAlign=middle;spacingTop=-1;spacingLeft=3;spacingRight=3;rotatable=0;labelPosition=right;points=[];portConstraint=eastwest;" parent="144" vertex="1"><mxGeometry y="60" width="400" height="8" as="geometry"/></mxCell><mxCell id="147" value="+ Polynomial(arr[]: double, size: int, variable: char): constructor&#10;+ Polynomial(coefficient: double, variable: char, degree: int): constructor&#10;+ getVariable(): char&#10;- reduce(): void&#10;+ add(Function): Function&#10;+ subtract(Function) Function&#10;+ multiply(Function): Function&#10;+ scalarMultiply(n: double): Polynomial&#10;+ show(): String&#10;+ differentiate(): Polynomial&#10;- removeTrailingZeros(num: string): string" style="text;strokeColor=none;fillColor=none;align=left;verticalAlign=top;spacingLeft=4;spacingRight=4;overflow=hidden;rotatable=0;points=[[0,0.5],[1,0.5]];portConstraint=eastwest;" parent="144" vertex="1"><mxGeometry y="68" width="400" height="162" as="geometry"/></mxCell><mxCell id="351" style="edgeStyle=orthogonalEdgeStyle;rounded=0;orthogonalLoop=1;jettySize=auto;html=1;entryX=1.006;entryY=0.376;entryDx=0;entryDy=0;dashed=1;endArrow=block;endFill=0;entryPerimeter=0;" parent="1" source="149" target="331" edge="1"><mxGeometry relative="1" as="geometry"><Array as="points"><mxPoint x="-350" y="1460"/><mxPoint x="-350" y="1284"/><mxPoint x="-420" y="1284"/><mxPoint x="-420" y="1285"/></Array></mxGeometry></mxCell><mxCell id="149" value="Trig" style="swimlane;fontStyle=1;align=center;verticalAlign=top;childLayout=stackLayout;horizontal=1;startSize=26;horizontalStack=0;resizeParent=1;resizeParentMax=0;resizeLast=0;collapsible=1;marginBottom=0;" parent="1" vertex="1"><mxGeometry x="-335" y="1310" width="270" height="300" as="geometry"/></mxCell><mxCell id="150" value="- PI: double &#10;- nodeInput: Node&#10;- valueInput: double&#10;- coef: double &#10;- trigType: string " style="text;strokeColor=none;fillColor=none;align=left;verticalAlign=top;spacingLeft=4;spacingRight=4;overflow=hidden;rotatable=0;points=[[0,0.5],[1,0.5]];portConstraint=eastwest;" parent="149" vertex="1"><mxGeometry y="26" width="270" height="84" as="geometry"/></mxCell><mxCell id="151" value="" style="line;strokeWidth=1;fillColor=none;align=left;verticalAlign=middle;spacingTop=-1;spacingLeft=3;spacingRight=3;rotatable=0;labelPosition=right;points=[];portConstraint=eastwest;" parent="149" vertex="1"><mxGeometry y="110" width="270" height="8" as="geometry"/></mxCell><mxCell id="152" value="+ Trig(Node, string, double): constructor&#10;+ Trig(double, string, double): constructor&#10;+ ~Trig(): destructor&#10;+ getTrigType():String&#10;+ getNodeInput(): Node&#10;+ getValueInput(): double&#10;+ setValue(double): void&#10;+ getValue(): double&#10;+ getCoef(): double&#10;+ add(Function): Function&#10;+ subtract(Function): Function&#10;+ multiply(Function): Function " style="text;strokeColor=none;fillColor=none;align=left;verticalAlign=top;spacingLeft=4;spacingRight=4;overflow=hidden;rotatable=0;points=[[0,0.5],[1,0.5]];portConstraint=eastwest;" parent="149" vertex="1"><mxGeometry y="118" width="270" height="182" as="geometry"/></mxCell><mxCell id="158" value="Fraction" style="swimlane;fontStyle=1;align=center;verticalAlign=top;childLayout=stackLayout;horizontal=1;startSize=26;horizontalStack=0;resizeParent=1;resizeParentMax=0;resizeLast=0;collapsible=1;marginBottom=0;" parent="1" vertex="1"><mxGeometry x="-1260" y="990" width="360" height="220" as="geometry"/></mxCell><mxCell id="159" value="+ numerator: double&#10;+ denominator: double" style="text;strokeColor=none;fillColor=none;align=left;verticalAlign=top;spacingLeft=4;spacingRight=4;overflow=hidden;rotatable=0;points=[[0,0.5],[1,0.5]];portConstraint=eastwest;" parent="158" vertex="1"><mxGeometry y="26" width="360" height="44" as="geometry"/></mxCell><mxCell id="160" value="" style="line;strokeWidth=1;fillColor=none;align=left;verticalAlign=middle;spacingTop=-1;spacingLeft=3;spacingRight=3;rotatable=0;labelPosition=right;points=[];portConstraint=eastwest;" parent="158" vertex="1"><mxGeometry y="70" width="360" height="8" as="geometry"/></mxCell><mxCell id="161" value="+ Fraction(numerator: double, denominator: double): constructor&#10;+ add(Fraction): Fraction&#10;+ subtract(Fraction): Fraction&#10;+ multiply(Fraction): Fraction&#10;+ divide(Fraction): Fraction&#10;+ simplify(): void&#10;+ to_double(): double&#10;+ commonMultiple(): int&#10;+ to_fraction(number: double): Fraction &#10;" style="text;strokeColor=none;fillColor=none;align=left;verticalAlign=top;spacingLeft=4;spacingRight=4;overflow=hidden;rotatable=0;points=[[0,0.5],[1,0.5]];portConstraint=eastwest;" parent="158" vertex="1"><mxGeometry y="78" width="360" height="142" as="geometry"/></mxCell><mxCell id="78" style="edgeStyle=orthogonalEdgeStyle;rounded=0;orthogonalLoop=1;jettySize=auto;html=1;entryX=0.572;entryY=0.003;entryDx=0;entryDy=0;entryPerimeter=0;" parent="1" target="69" edge="1"><mxGeometry relative="1" as="geometry"><mxPoint x="1780" y="250" as="sourcePoint"/><Array as="points"><mxPoint x="1782" y="250"/><mxPoint x="1782" y="370"/></Array><mxPoint x="2100" y="950" as="targetPoint"/></mxGeometry></mxCell><mxCell id="79" style="edgeStyle=orthogonalEdgeStyle;rounded=0;orthogonalLoop=1;jettySize=auto;html=1;" parent="1" edge="1"><mxGeometry relative="1" as="geometry"><mxPoint x="1780" y="250" as="sourcePoint"/><Array as="points"><mxPoint x="1960" y="250"/><mxPoint x="1960" y="1050"/></Array><mxPoint x="1960" y="1050" as="targetPoint"/></mxGeometry></mxCell><mxCell id="84" style="edgeStyle=orthogonalEdgeStyle;rounded=0;orthogonalLoop=1;jettySize=auto;html=1;exitX=0.486;exitY=1;exitDx=0;exitDy=0;exitPerimeter=0;entryX=1;entryY=0.593;entryDx=0;entryDy=0;entryPerimeter=0;" parent="1" source="25" target="81" edge="1"><mxGeometry relative="1" as="geometry"><Array as="points"><mxPoint x="1782" y="250"/></Array><mxPoint x="1460" y="294" as="targetPoint"/><mxPoint x="1765" y="240" as="sourcePoint"/></mxGeometry></mxCell><mxCell id="69" value="MatrixGUI" style="swimlane;fontStyle=1;align=center;verticalAlign=top;childLayout=stackLayout;horizontal=1;startSize=26;horizontalStack=0;resizeParent=1;resizeParentMax=0;resizeLast=0;collapsible=1;marginBottom=0;" parent="1" vertex="1"><mxGeometry x="1645" y="392" width="240" height="606" as="geometry"/></mxCell><mxCell id="70" value="- warningLabel: QLabel&#10;- solveButton: QPushButton&#10;- setButton: QPushButton&#10;- inverse1: QPushButton&#10;- inverse2: QPushButton&#10;- transpose1: QPushButton&#10;- transpose2: QPushButton&#10;- determinant1: QPushButton&#10;- determinant2: QPushButton&#10;- addition: QPushButton&#10;- subtraction: QPushButton&#10;- multiplication: QPushButton&#10;- digitButtons1[10]: QPushButton&#10;- digitButtons2[10]: QPushButton&#10;- clear1: QPushButton&#10;- clear2: QPushButton&#10;- firstMatrixLayout: QGridLayout&#10;- secondMatrixLayout: QGridLayout&#10;- outputMatrixLayout: QGridLayout&#10;- firstOperationsBox: QGroupBox&#10;- secondOperationsBox: QGroupBox&#10;- firstSizeBox: QLineEdit&#10;- secondSizeBox: QLineEdit&#10;- thirdSizeBox: QLineEdit&#10;- fourthSizeBox: QLineEdit&#10;- firstOpInput: QLineEdit&#10;- secondOpInput: QLineEdit&#10;- thirdOpInput: QLineEdit&#10;- firstMatrix[16]: QLineEdit&#10;- secondMatrix[16]: QLineEdit&#10;- outputMatrix[16]: QLineEdit&#10;" style="text;strokeColor=none;fillColor=none;align=left;verticalAlign=top;spacingLeft=4;spacingRight=4;overflow=hidden;rotatable=0;points=[[0,0.5],[1,0.5]];portConstraint=eastwest;" parent="69" vertex="1"><mxGeometry y="26" width="240" height="454" as="geometry"/></mxCell><mxCell id="71" value="" style="line;strokeWidth=1;fillColor=none;align=left;verticalAlign=middle;spacingTop=-1;spacingLeft=3;spacingRight=3;rotatable=0;labelPosition=right;points=[];portConstraint=eastwest;" parent="69" vertex="1"><mxGeometry y="480" width="240" height="8" as="geometry"/></mxCell><mxCell id="72" value="+ matrixGUI(parent: QWidget): constructor&#10;- setClicked(): void &#10;- operationClicked(): void &#10;- firstDigitClicked(): void &#10;- secondDigitClicked(): void &#10;- clearClicked(): void &#10;- solveClicked(): void" style="text;strokeColor=none;fillColor=none;align=left;verticalAlign=top;spacingLeft=4;spacingRight=4;overflow=hidden;rotatable=0;points=[[0,0.5],[1,0.5]];portConstraint=eastwest;" parent="69" vertex="1"><mxGeometry y="488" width="240" height="118" as="geometry"/></mxCell><mxCell id="74" value="CalculatorGUI" style="swimlane;fontStyle=1;align=center;verticalAlign=top;childLayout=stackLayout;horizontal=1;startSize=26;horizontalStack=0;resizeParent=1;resizeParentMax=0;resizeLast=0;collapsible=1;marginBottom=0;" parent="1" vertex="1"><mxGeometry x="1690" y="1050" width="360" height="590" as="geometry"/></mxCell><mxCell id="75" value="+ calculatorGUI(parent: QWidget): constructor&#10;- toggleButton: QPushButton&#10;- solveButton: QPushButton &#10;- pointButton: button&#10;- clearButton: QPushButton&#10;- divisonButton: button&#10;- timesButton: button&#10;- minusButton: button&#10;- plusButton: button&#10;- squareRootButton: button&#10;- powerButton: button&#10;- leftBracket: button&#10;- rightBracket: button&#10;- sinButton: button&#10;- cosButton: button&#10;- tanButton: button&#10;- logButton: button&#10;- eulerButton: button&#10;- piButton: button&#10;- equalButton: button &#10;- exclamButton: button&#10;- addLineButton: button &#10;- removeLineButton: button &#10;- display: QLineEdit&#10;- stepsDisplay: stepsGUI&#10;- digitButtons[10]: button&#10;- numLines: int &#10;- currLine: QLineEdit&#10;- display[50]: QLineEdit&#10;&#10;" style="text;strokeColor=none;fillColor=none;align=left;verticalAlign=top;spacingLeft=4;spacingRight=4;overflow=hidden;rotatable=0;points=[[0,0.5],[1,0.5]];portConstraint=eastwest;" parent="74" vertex="1"><mxGeometry y="26" width="360" height="414" as="geometry"/></mxCell><mxCell id="76" value="" style="line;strokeWidth=1;fillColor=none;align=left;verticalAlign=middle;spacingTop=-1;spacingLeft=3;spacingRight=3;rotatable=0;labelPosition=right;points=[];portConstraint=eastwest;" parent="74" vertex="1"><mxGeometry y="440" width="360" height="8" as="geometry"/></mxCell><mxCell id="77" value="- digitClicked(): void &#10;- toggleClicked(): void  &#10;- operatorClicked(): void&#10;- addLineClicked(): void&#10;- removeLineClicked(): void &#10;- lineClicked(): void &#10;- clear(): void &#10;- solveClicked(): void &#10;- createButton(text: QString, member: char): button&#10; " style="text;strokeColor=none;fillColor=none;align=left;verticalAlign=top;spacingLeft=4;spacingRight=4;overflow=hidden;rotatable=0;points=[[0,0.5],[1,0.5]];portConstraint=eastwest;" parent="74" vertex="1"><mxGeometry y="448" width="360" height="142" as="geometry"/></mxCell><mxCell id="80" value="StepsGUI" style="swimlane;fontStyle=1;align=center;verticalAlign=top;childLayout=stackLayout;horizontal=1;startSize=26;horizontalStack=0;resizeParent=1;resizeParentMax=0;resizeLast=0;collapsible=1;marginBottom=0;" parent="1" vertex="1"><mxGeometry x="1300" y="192" width="240" height="158" as="geometry"/></mxCell><mxCell id="81" value="- gridLayout: QGridLayout&#10;- stepsDisplay: QTextEdit &#10;- listWidget: QListWidget&#10;" style="text;strokeColor=none;fillColor=none;align=left;verticalAlign=top;spacingLeft=4;spacingRight=4;overflow=hidden;rotatable=0;points=[[0,0.5],[1,0.5]];portConstraint=eastwest;" parent="80" vertex="1"><mxGeometry y="26" width="240" height="54" as="geometry"/></mxCell><mxCell id="82" value="" style="line;strokeWidth=1;fillColor=none;align=left;verticalAlign=middle;spacingTop=-1;spacingLeft=3;spacingRight=3;rotatable=0;labelPosition=right;points=[];portConstraint=eastwest;" parent="80" vertex="1"><mxGeometry y="80" width="240" height="8" as="geometry"/></mxCell><mxCell id="83" value="+ stepsGUI(parent: QWidget): constructor &#10;+ updateSteps(steps: vector&lt;string&gt;): void &#10;+ displaySteps(steps: vector&lt;string&gt;): void&#10;- handleList(): void " style="text;strokeColor=none;fillColor=none;align=left;verticalAlign=top;spacingLeft=4;spacingRight=4;overflow=hidden;rotatable=0;points=[[0,0.5],[1,0.5]];portConstraint=eastwest;" parent="80" vertex="1"><mxGeometry y="88" width="240" height="70" as="geometry"/></mxCell><mxCell id="85" value="GraphGUI" style="swimlane;fontStyle=1;align=center;verticalAlign=top;childLayout=stackLayout;horizontal=1;startSize=26;horizontalStack=0;resizeParent=1;resizeParentMax=0;resizeLast=0;collapsible=1;marginBottom=0;" parent="1" vertex="1"><mxGeometry x="2160" y="142" width="290" height="510" as="geometry"/></mxCell><mxCell id="86" value="- toggleButton: QPushButton&#10;- graphButton: QPushButton &#10;- pointButton: button&#10;- clearButton: QPushButton&#10;- divisonButton: button&#10;- timesButton: button&#10;- minusButton: button&#10;- plusButton: button&#10;- squareRootButton: button&#10;- powerButton: button&#10;- leftBracket: button&#10;- rightBracket: button&#10;- sinButton: button&#10;- cosButton: button&#10;- tanButton: button&#10;- logButton: button&#10;- eulerButton: button&#10;- piButton: button&#10;- equalButton: button &#10;- exclamButton: button&#10;- inputLine: QLineEdit&#10;- customPlot: QcustomPlot &#10;- digitButtons[10]: button&#10;- range1: QLineEdit&#10;- range2: QLineEdit" style="text;strokeColor=none;fillColor=none;align=left;verticalAlign=top;spacingLeft=4;spacingRight=4;overflow=hidden;rotatable=0;points=[[0,0.5],[1,0.5]];portConstraint=eastwest;" parent="85" vertex="1"><mxGeometry y="26" width="290" height="364" as="geometry"/></mxCell><mxCell id="87" value="" style="line;strokeWidth=1;fillColor=none;align=left;verticalAlign=middle;spacingTop=-1;spacingLeft=3;spacingRight=3;rotatable=0;labelPosition=right;points=[];portConstraint=eastwest;" parent="85" vertex="1"><mxGeometry y="390" width="290" height="8" as="geometry"/></mxCell><mxCell id="88" value="+ graphGUI(parent: QWidget): constructor&#10;- digitClicked(): void &#10;- toggleClicked(): void  &#10;- operatorClicked(): void&#10;- clear(): void&#10;- graphClicked(): void&#10;- createButton(text: QString, member: char): button&#10; " style="text;strokeColor=none;fillColor=none;align=left;verticalAlign=top;spacingLeft=4;spacingRight=4;overflow=hidden;rotatable=0;points=[[0,0.5],[1,0.5]];portConstraint=eastwest;" parent="85" vertex="1"><mxGeometry y="398" width="290" height="112" as="geometry"/></mxCell><mxCell id="166" value="Token" style="swimlane;fontStyle=1;align=center;verticalAlign=top;childLayout=stackLayout;horizontal=1;startSize=26;horizontalStack=0;resizeParent=1;resizeParentMax=0;resizeLast=0;collapsible=1;marginBottom=0;" parent="1" vertex="1"><mxGeometry x="-600" y="280" width="320" height="180" as="geometry"/></mxCell><mxCell id="167" value="+ Type: Enum&#10;+ type: Type&#10;+ value: string&#10;+ position: int" style="text;strokeColor=none;fillColor=none;align=left;verticalAlign=top;spacingLeft=4;spacingRight=4;overflow=hidden;rotatable=0;points=[[0,0.5],[1,0.5]];portConstraint=eastwest;" parent="166" vertex="1"><mxGeometry y="26" width="320" height="64" as="geometry"/></mxCell><mxCell id="168" value="" style="line;strokeWidth=1;fillColor=none;align=left;verticalAlign=middle;spacingTop=-1;spacingLeft=3;spacingRight=3;rotatable=0;labelPosition=right;points=[];portConstraint=eastwest;" parent="166" vertex="1"><mxGeometry y="90" width="320" height="8" as="geometry"/></mxCell><mxCell id="169" value="+ Token(type: Type, value: string, position: int): constructor&#10;+ Token(t: Token): constructor &#10;+ getType(): Type&#10;+ setType(type: Type): void&#10;+ equals(type: Type): bool" style="text;strokeColor=none;fillColor=none;align=left;verticalAlign=top;spacingLeft=4;spacingRight=4;overflow=hidden;rotatable=0;points=[[0,0.5],[1,0.5]];portConstraint=eastwest;" parent="166" vertex="1"><mxGeometry y="98" width="320" height="82" as="geometry"/></mxCell><mxCell id="540" style="edgeStyle=none;html=1;exitX=0.5;exitY=0;exitDx=0;exitDy=0;" parent="1" source="172" edge="1"><mxGeometry relative="1" as="geometry"><mxPoint x="-345.27586206896535" y="460" as="targetPoint"/></mxGeometry></mxCell><mxCell id="172" value="Node" style="swimlane;fontStyle=1;align=center;verticalAlign=top;childLayout=stackLayout;horizontal=1;startSize=26;horizontalStack=0;resizeParent=1;resizeParentMax=0;resizeLast=0;collapsible=1;marginBottom=0;" parent="1" vertex="1"><mxGeometry x="-460" y="524" width="230" height="370" as="geometry"/></mxCell><mxCell id="173" value="- value: Token &#10;- left: Node &#10;- right: Node&#10;- parent: Node &#10;- specialOp: Token&#10;- function: Function &#10;+ isSubR: bool  " style="text;strokeColor=none;fillColor=none;align=left;verticalAlign=top;spacingLeft=4;spacingRight=4;overflow=hidden;rotatable=0;points=[[0,0.5],[1,0.5]];portConstraint=eastwest;" parent="172" vertex="1"><mxGeometry y="26" width="230" height="104" as="geometry"/></mxCell><mxCell id="174" value="" style="line;strokeWidth=1;fillColor=none;align=left;verticalAlign=middle;spacingTop=-1;spacingLeft=3;spacingRight=3;rotatable=0;labelPosition=right;points=[];portConstraint=eastwest;" parent="172" vertex="1"><mxGeometry y="130" width="230" height="8" as="geometry"/></mxCell><mxCell id="175" value="+ Node(val: Token, p: Node): constructor&#10;+ Node(n: Node): constructor&#10;+ getLeft(): Node&#10;+ getRight(): Node&#10;+ getParent(): Node &#10;+ getValue(): String&#10;+ getSpecialOp(): Token&#10;+ getFunction(): Function&#10;+ setLeft(n: Node): void&#10;+ setRight(n: Node): void&#10;+ setValue(v: Token): void&#10;+ setParent(n: Node): void &#10;+ setSpecialOp(op: Token): void &#10;+ clearSpecialOp(): void &#10;+ setFunction(f: Function): void&#10;+ isLeaf(): bool" style="text;strokeColor=none;fillColor=none;align=left;verticalAlign=top;spacingLeft=4;spacingRight=4;overflow=hidden;rotatable=0;points=[[0,0.5],[1,0.5]];portConstraint=eastwest;" parent="172" vertex="1"><mxGeometry y="138" width="230" height="232" as="geometry"/></mxCell><mxCell id="180" style="edgeStyle=orthogonalEdgeStyle;rounded=0;orthogonalLoop=1;jettySize=auto;html=1;" parent="1" edge="1"><mxGeometry relative="1" as="geometry"><mxPoint x="-120" y="396.5" as="sourcePoint"/><Array as="points"><mxPoint x="-120" y="399.5"/></Array><mxPoint x="-280" y="399.5" as="targetPoint"/></mxGeometry></mxCell><mxCell id="366" style="edgeStyle=orthogonalEdgeStyle;rounded=0;orthogonalLoop=1;jettySize=auto;html=1;endArrow=classic;endFill=1;" parent="1" source="189" edge="1"><mxGeometry relative="1" as="geometry"><mxPoint x="105" y="900" as="targetPoint"/><Array as="points"><mxPoint x="540" y="900"/><mxPoint x="105" y="900"/></Array></mxGeometry></mxCell><mxCell id="399" style="edgeStyle=orthogonalEdgeStyle;rounded=0;orthogonalLoop=1;jettySize=auto;html=1;endArrow=classic;endFill=1;" parent="1" source="189" target="53" edge="1"><mxGeometry relative="1" as="geometry"><mxPoint x="180" y="620" as="targetPoint"/><Array as="points"><mxPoint x="490" y="634"/></Array></mxGeometry></mxCell><mxCell id="189" value="ComputeEquation" style="swimlane;fontStyle=1;align=center;verticalAlign=top;childLayout=stackLayout;horizontal=1;startSize=26;horizontalStack=0;resizeParent=1;resizeParentMax=0;resizeLast=0;collapsible=1;marginBottom=0;" parent="1" vertex="1"><mxGeometry x="470" y="534" width="230" height="66" as="geometry"/></mxCell><mxCell id="191" value="" style="line;strokeWidth=1;fillColor=none;align=left;verticalAlign=middle;spacingTop=-1;spacingLeft=3;spacingRight=3;rotatable=0;labelPosition=right;points=[];portConstraint=eastwest;" parent="189" vertex="1"><mxGeometry y="26" width="230" height="8" as="geometry"/></mxCell><mxCell id="192" value="+ solve(equation: string): vector&lt;string&gt;" style="text;strokeColor=none;fillColor=none;align=left;verticalAlign=top;spacingLeft=4;spacingRight=4;overflow=hidden;rotatable=0;points=[[0,0.5],[1,0.5]];portConstraint=eastwest;" parent="189" vertex="1"><mxGeometry y="34" width="230" height="32" as="geometry"/></mxCell><mxCell id="397" style="edgeStyle=orthogonalEdgeStyle;rounded=0;orthogonalLoop=1;jettySize=auto;html=1;entryX=1;entryY=0.5;entryDx=0;entryDy=0;endArrow=classic;endFill=1;" parent="1" source="201" target="124" edge="1"><mxGeometry relative="1" as="geometry"/></mxCell><mxCell id="201" value="ComputeMatrix" style="swimlane;fontStyle=1;align=center;verticalAlign=top;childLayout=stackLayout;horizontal=1;startSize=26;horizontalStack=0;resizeParent=1;resizeParentMax=0;resizeLast=0;collapsible=1;marginBottom=0;" parent="1" vertex="1"><mxGeometry x="830" y="1237" width="830" height="66" as="geometry"/></mxCell><mxCell id="203" value="" style="line;strokeWidth=1;fillColor=none;align=left;verticalAlign=middle;spacingTop=-1;spacingLeft=3;spacingRight=3;rotatable=0;labelPosition=right;points=[];portConstraint=eastwest;" parent="201" vertex="1"><mxGeometry y="26" width="830" height="8" as="geometry"/></mxCell><mxCell id="204" value="+solve(matrix1: vector&lt;vector&lt;double&gt;&gt;, matrix2: vector&lt;vector&lt;double&gt;&gt;, operations[3]: char, scalar1:double, scalar2: double): vector&lt;vector&lt;double&gt;&gt; " style="text;strokeColor=none;fillColor=none;align=left;verticalAlign=top;spacingLeft=4;spacingRight=4;overflow=hidden;rotatable=0;points=[[0,0.5],[1,0.5]];portConstraint=eastwest;" parent="201" vertex="1"><mxGeometry y="34" width="830" height="32" as="geometry"/></mxCell><mxCell id="405" style="edgeStyle=orthogonalEdgeStyle;rounded=0;orthogonalLoop=1;jettySize=auto;html=1;endArrow=classic;endFill=1;exitX=0.533;exitY=1.08;exitDx=0;exitDy=0;exitPerimeter=0;" parent="1" source="212" edge="1"><mxGeometry relative="1" as="geometry"><mxPoint x="800" y="1470" as="targetPoint"/><Array as="points"><mxPoint x="800" y="1300"/><mxPoint x="800" y="1300"/></Array></mxGeometry></mxCell><mxCell id="209" value="ComputeSets" style="swimlane;fontStyle=1;align=center;verticalAlign=top;childLayout=stackLayout;horizontal=1;startSize=26;horizontalStack=0;resizeParent=1;resizeParentMax=0;resizeLast=0;collapsible=1;marginBottom=0;" parent="1" vertex="1"><mxGeometry x="640" y="1050" width="300" height="66" as="geometry"/></mxCell><mxCell id="211" value="" style="line;strokeWidth=1;fillColor=none;align=left;verticalAlign=middle;spacingTop=-1;spacingLeft=3;spacingRight=3;rotatable=0;labelPosition=right;points=[];portConstraint=eastwest;" parent="209" vertex="1"><mxGeometry y="26" width="300" height="8" as="geometry"/></mxCell><mxCell id="212" value="+ solve(vector&lt;double&gt;, vector&lt;double&gt;, string): string&#10; " style="text;strokeColor=none;fillColor=none;align=left;verticalAlign=top;spacingLeft=4;spacingRight=4;overflow=hidden;rotatable=0;points=[[0,0.5],[1,0.5]];portConstraint=eastwest;" parent="209" vertex="1"><mxGeometry y="34" width="300" height="32" as="geometry"/></mxCell><mxCell id="218" value="" style="endArrow=none;dashed=1;html=1;" parent="1" edge="1"><mxGeometry width="50" height="50" relative="1" as="geometry"><mxPoint x="1360" y="2120" as="sourcePoint"/><mxPoint x="1360" y="-280" as="targetPoint"/><Array as="points"/></mxGeometry></mxCell><mxCell id="347" style="edgeStyle=orthogonalEdgeStyle;rounded=0;orthogonalLoop=1;jettySize=auto;html=1;dashed=1;endArrow=block;endFill=0;" parent="1" source="255" edge="1"><mxGeometry relative="1" as="geometry"><Array as="points"><mxPoint x="-695" y="1300"/><mxPoint x="-695" y="1290"/></Array><mxPoint x="-620" y="1290" as="targetPoint"/></mxGeometry></mxCell><mxCell id="255" value="Constant" style="swimlane;fontStyle=1;align=center;verticalAlign=top;childLayout=stackLayout;horizontal=1;startSize=26;horizontalStack=0;resizeParent=1;resizeParentMax=0;resizeLast=0;collapsible=1;marginBottom=0;" parent="1" vertex="1"><mxGeometry x="-1150" y="1240" width="220" height="170" as="geometry"/></mxCell><mxCell id="256" value="- value: double" style="text;strokeColor=none;fillColor=none;align=left;verticalAlign=top;spacingLeft=4;spacingRight=4;overflow=hidden;rotatable=0;points=[[0,0.5],[1,0.5]];portConstraint=eastwest;" parent="255" vertex="1"><mxGeometry y="26" width="220" height="26" as="geometry"/></mxCell><mxCell id="257" value="" style="line;strokeWidth=1;fillColor=none;align=left;verticalAlign=middle;spacingTop=-1;spacingLeft=3;spacingRight=3;rotatable=0;labelPosition=right;points=[];portConstraint=eastwest;" parent="255" vertex="1"><mxGeometry y="52" width="220" height="8" as="geometry"/></mxCell><mxCell id="258" value="+ Constant(double, string): constructor&#10;+ ~Constant(): destructor&#10;+ getValue(): double&#10;+ setValue(double): void&#10;+ add(Function): Function&#10;+ subtract(Function): Function&#10;+ multiply(Function): Function " style="text;strokeColor=none;fillColor=none;align=left;verticalAlign=top;spacingLeft=4;spacingRight=4;overflow=hidden;rotatable=0;points=[[0,0.5],[1,0.5]];portConstraint=eastwest;" parent="255" vertex="1"><mxGeometry y="60" width="220" height="110" as="geometry"/></mxCell><mxCell id="348" style="edgeStyle=orthogonalEdgeStyle;rounded=0;orthogonalLoop=1;jettySize=auto;html=1;dashed=1;endArrow=block;endFill=0;entryX=0.5;entryY=1;entryDx=0;entryDy=0;" parent="1" source="264" target="331" edge="1"><mxGeometry relative="1" as="geometry"><mxPoint x="-450" y="1440" as="targetPoint"/><Array as="points"/></mxGeometry></mxCell><mxCell id="264" value="Log" style="swimlane;fontStyle=1;align=center;verticalAlign=top;childLayout=stackLayout;horizontal=1;startSize=26;horizontalStack=0;resizeParent=1;resizeParentMax=0;resizeLast=0;collapsible=1;marginBottom=0;" parent="1" vertex="1"><mxGeometry x="-645" y="1530" width="240" height="150" as="geometry"/></mxCell><mxCell id="265" value="- input: Function&#10;- base: double" style="text;strokeColor=none;fillColor=none;align=left;verticalAlign=top;spacingLeft=4;spacingRight=4;overflow=hidden;rotatable=0;points=[[0,0.5],[1,0.5]];portConstraint=eastwest;" parent="264" vertex="1"><mxGeometry y="26" width="240" height="44" as="geometry"/></mxCell><mxCell id="266" value="" style="line;strokeWidth=1;fillColor=none;align=left;verticalAlign=middle;spacingTop=-1;spacingLeft=3;spacingRight=3;rotatable=0;labelPosition=right;points=[];portConstraint=eastwest;" parent="264" vertex="1"><mxGeometry y="70" width="240" height="8" as="geometry"/></mxCell><mxCell id="267" value="+ Log(Function, double, string): constructor&#10;+ getInput(): Function&#10;+ getBase(): double&#10;+ solveLog(): double" style="text;strokeColor=none;fillColor=none;align=left;verticalAlign=top;spacingLeft=4;spacingRight=4;overflow=hidden;rotatable=0;points=[[0,0.5],[1,0.5]];portConstraint=eastwest;" parent="264" vertex="1"><mxGeometry y="78" width="240" height="72" as="geometry"/></mxCell><mxCell id="349" style="edgeStyle=orthogonalEdgeStyle;rounded=0;orthogonalLoop=1;jettySize=auto;html=1;entryX=1;entryY=0.37;entryDx=0;entryDy=0;dashed=1;endArrow=block;endFill=0;entryPerimeter=0;" parent="1" source="280" target="331" edge="1"><mxGeometry relative="1" as="geometry"><Array as="points"><mxPoint x="-350" y="1134"/><mxPoint x="-350" y="1284"/></Array></mxGeometry></mxCell><mxCell id="280" value="LinearEqn" style="swimlane;fontStyle=1;align=center;verticalAlign=top;childLayout=stackLayout;horizontal=1;startSize=26;horizontalStack=0;resizeParent=1;resizeParentMax=0;resizeLast=0;collapsible=1;marginBottom=0;" parent="1" vertex="1"><mxGeometry x="-330" y="1100" width="200" height="98" as="geometry"/></mxCell><mxCell id="281" value="+ degree: int&#10;+ coeff: array&#10;+ type: string&#10;+ map&lt;type, coeff[]&gt;" style="text;strokeColor=none;fillColor=none;align=left;verticalAlign=top;spacingLeft=4;spacingRight=4;overflow=hidden;rotatable=0;points=[[0,0.5],[1,0.5]];portConstraint=eastwest;" parent="280" vertex="1"><mxGeometry y="26" width="200" height="64" as="geometry"/></mxCell><mxCell id="282" value="" style="line;strokeWidth=1;fillColor=none;align=left;verticalAlign=middle;spacingTop=-1;spacingLeft=3;spacingRight=3;rotatable=0;labelPosition=right;points=[];portConstraint=eastwest;" parent="280" vertex="1"><mxGeometry y="90" width="200" height="8" as="geometry"/></mxCell><mxCell id="289" style="edgeStyle=orthogonalEdgeStyle;rounded=0;orthogonalLoop=1;jettySize=auto;html=1;" parent="1" edge="1"><mxGeometry relative="1" as="geometry"><mxPoint x="1661" y="-21" as="sourcePoint"/><mxPoint x="1360" y="-21" as="targetPoint"/><Array as="points"><mxPoint x="1661" y="-21"/></Array></mxGeometry></mxCell><mxCell id="318" style="edgeStyle=orthogonalEdgeStyle;rounded=0;orthogonalLoop=1;jettySize=auto;html=1;dashed=1;startArrow=none;startFill=0;endArrow=none;endFill=0;" parent="1" edge="1"><mxGeometry relative="1" as="geometry"><mxPoint x="900" y="490" as="sourcePoint"/><mxPoint x="577" y="530" as="targetPoint"/><Array as="points"><mxPoint x="900" y="490"/><mxPoint x="577" y="490"/></Array></mxGeometry></mxCell><mxCell id="319" style="edgeStyle=orthogonalEdgeStyle;rounded=0;orthogonalLoop=1;jettySize=auto;html=1;entryX=0.5;entryY=0;entryDx=0;entryDy=0;dashed=1;endFill=0;endArrow=none;startFill=0;startArrow=none;" parent="1" target="381" edge="1"><mxGeometry relative="1" as="geometry"><mxPoint x="1010" y="420" as="sourcePoint"/><mxPoint x="924" y="444" as="targetPoint"/><Array as="points"><mxPoint x="1010" y="490"/><mxPoint x="744" y="490"/></Array></mxGeometry></mxCell><mxCell id="320" style="edgeStyle=orthogonalEdgeStyle;rounded=0;orthogonalLoop=1;jettySize=auto;html=1;dashed=1;endFill=0;endArrow=none;startFill=0;startArrow=block;" parent="1" edge="1"><mxGeometry relative="1" as="geometry"><mxPoint x="1010" y="371" as="sourcePoint"/><mxPoint x="800" y="1045" as="targetPoint"/><Array as="points"><mxPoint x="1010" y="890"/><mxPoint x="800" y="890"/><mxPoint x="800" y="1045"/></Array></mxGeometry></mxCell><mxCell id="331" value="&lt;p style=&quot;margin: 0px ; margin-top: 4px ; text-align: center&quot;&gt;&lt;b&gt;Function&lt;/b&gt;&lt;/p&gt;&lt;hr size=&quot;1&quot;&gt;&lt;p style=&quot;margin: 0px ; margin-left: 4px&quot;&gt;# type: string&lt;/p&gt;&lt;hr size=&quot;1&quot;&gt;&lt;p style=&quot;margin: 0px ; margin-left: 4px&quot;&gt;+ Function(): constructor&amp;nbsp;&lt;/p&gt;&lt;p style=&quot;margin: 0px ; margin-left: 4px&quot;&gt;+ ~Function(): destructor&lt;/p&gt;&lt;p style=&quot;margin: 0px ; margin-left: 4px&quot;&gt;+ add(Function): Function&lt;br&gt;+ subtract(Function): Function&lt;/p&gt;&lt;p style=&quot;margin: 0px ; margin-left: 4px&quot;&gt;+ multiply(Function): Function&lt;/p&gt;&lt;p style=&quot;margin: 0px ; margin-left: 4px&quot;&gt;+ toString(): Function&lt;/p&gt;&lt;p style=&quot;margin: 0px ; margin-left: 4px&quot;&gt;+ getType(): string&amp;nbsp;&lt;/p&gt;&lt;p style=&quot;margin: 0px ; margin-left: 4px&quot;&gt;+ getValue(): double&lt;/p&gt;&lt;p style=&quot;margin: 0px ; margin-left: 4px&quot;&gt;+ setValue(double): void&lt;/p&gt;&lt;p style=&quot;margin: 0px ; margin-left: 4px&quot;&gt;&lt;br&gt;&lt;/p&gt;" style="verticalAlign=top;align=left;overflow=fill;fontSize=12;fontFamily=Helvetica;html=1;shadow=0;glass=0;fillColor=none;" parent="1" vertex="1"><mxGeometry x="-620" y="1216" width="190" height="184" as="geometry"/></mxCell><mxCell id="361" value="" style="endArrow=classic;html=1;" parent="1" edge="1"><mxGeometry width="50" height="50" relative="1" as="geometry"><mxPoint x="1780" y="250" as="sourcePoint"/><mxPoint x="2159" y="250" as="targetPoint"/></mxGeometry></mxCell><mxCell id="395" style="edgeStyle=orthogonalEdgeStyle;rounded=0;orthogonalLoop=1;jettySize=auto;html=1;exitX=0.516;exitY=0.001;exitDx=0;exitDy=0;endArrow=block;endFill=0;dashed=1;exitPerimeter=0;entryX=0.424;entryY=1.026;entryDx=0;entryDy=0;entryPerimeter=0;" parent="1" source="372" target="53" edge="1"><mxGeometry relative="1" as="geometry"><Array as="points"><mxPoint x="-25" y="735"/></Array><mxPoint x="-25" y="680" as="targetPoint"/></mxGeometry></mxCell><mxCell id="372" value="LinearEqnParser" style="swimlane;fontStyle=1;align=center;verticalAlign=top;childLayout=stackLayout;horizontal=1;startSize=26;horizontalStack=0;resizeParent=1;resizeParentMax=0;resizeLast=0;collapsible=1;marginBottom=0;" parent="1" vertex="1"><mxGeometry x="-150" y="735" width="320" height="110" as="geometry"/></mxCell><mxCell id="373" value="- linearEquMatrix: vector&lt;Node&gt; &#10;" style="text;strokeColor=none;fillColor=none;align=left;verticalAlign=top;spacingLeft=4;spacingRight=4;overflow=hidden;rotatable=0;points=[[0,0.5],[1,0.5]];portConstraint=eastwest;" parent="372" vertex="1"><mxGeometry y="26" width="320" height="24" as="geometry"/></mxCell><mxCell id="374" value="" style="line;strokeWidth=1;fillColor=none;align=left;verticalAlign=middle;spacingTop=-1;spacingLeft=3;spacingRight=3;rotatable=0;labelPosition=right;points=[];portConstraint=eastwest;" parent="372" vertex="1"><mxGeometry y="50" width="320" height="8" as="geometry"/></mxCell><mxCell id="375" value="+ LinearEquParser(equations: vector&lt;string&gt;): constructor&#10;+ createParseTree(): void &#10;+ getLinearEquNodes(): vector&lt;Node&gt; " style="text;strokeColor=none;fillColor=none;align=left;verticalAlign=top;spacingLeft=4;spacingRight=4;overflow=hidden;rotatable=0;points=[[0,0.5],[1,0.5]];portConstraint=eastwest;" parent="372" vertex="1"><mxGeometry y="58" width="320" height="52" as="geometry"/></mxCell><mxCell id="398" style="edgeStyle=orthogonalEdgeStyle;rounded=0;orthogonalLoop=1;jettySize=auto;html=1;endArrow=classic;endFill=1;" parent="1" source="381" edge="1"><mxGeometry relative="1" as="geometry"><mxPoint x="170" y="788" as="targetPoint"/><Array as="points"><mxPoint x="460" y="788"/><mxPoint x="460" y="788"/></Array></mxGeometry></mxCell><mxCell id="400" style="edgeStyle=orthogonalEdgeStyle;rounded=0;orthogonalLoop=1;jettySize=auto;html=1;endArrow=classic;endFill=1;" parent="1" source="381" edge="1"><mxGeometry relative="1" as="geometry"><Array as="points"><mxPoint x="740" y="940"/><mxPoint x="105" y="940"/></Array><mxPoint x="105" y="940" as="targetPoint"/></mxGeometry></mxCell><mxCell id="381" value="ComputeLinearEquation" style="swimlane;fontStyle=1;align=center;verticalAlign=top;childLayout=stackLayout;horizontal=1;startSize=26;horizontalStack=0;resizeParent=1;resizeParentMax=0;resizeLast=0;collapsible=1;marginBottom=0;" parent="1" vertex="1"><mxGeometry x="660" y="750" width="280" height="66" as="geometry"/></mxCell><mxCell id="383" value="" style="line;strokeWidth=1;fillColor=none;align=left;verticalAlign=middle;spacingTop=-1;spacingLeft=3;spacingRight=3;rotatable=0;labelPosition=right;points=[];portConstraint=eastwest;" parent="381" vertex="1"><mxGeometry y="26" width="280" height="8" as="geometry"/></mxCell><mxCell id="384" value="+ solve(equations: vector&lt;string&gt;): vector&lt;string&gt;&#10;" style="text;strokeColor=none;fillColor=none;align=left;verticalAlign=top;spacingLeft=4;spacingRight=4;overflow=hidden;rotatable=0;points=[[0,0.5],[1,0.5]];portConstraint=eastwest;" parent="381" vertex="1"><mxGeometry y="34" width="280" height="32" as="geometry"/></mxCell><mxCell id="401" style="edgeStyle=orthogonalEdgeStyle;rounded=0;orthogonalLoop=1;jettySize=auto;html=1;dashed=1;endFill=0;endArrow=none;startFill=0;startArrow=block;entryX=0.5;entryY=0;entryDx=0;entryDy=0;" parent="1" target="201" edge="1"><mxGeometry relative="1" as="geometry"><mxPoint x="1010" y="373" as="sourcePoint"/><mxPoint x="1270" y="932" as="targetPoint"/><Array as="points"><mxPoint x="1010" y="373"/><mxPoint x="1010" y="890"/><mxPoint x="1420" y="890"/></Array></mxGeometry></mxCell><mxCell id="417" value="" style="endArrow=classic;html=1;entryX=0.565;entryY=1.005;entryDx=0;entryDy=0;entryPerimeter=0;" parent="1" target="175" edge="1"><mxGeometry width="50" height="50" relative="1" as="geometry"><mxPoint x="-166" y="930" as="sourcePoint"/><mxPoint x="-260" y="900" as="targetPoint"/><Array as="points"><mxPoint x="-240" y="930"/><mxPoint x="-330" y="930"/></Array></mxGeometry></mxCell><mxCell id="422" value="[1 .. 1]" style="text;html=1;align=center;verticalAlign=middle;resizable=0;points=[];autosize=1;strokeColor=none;rotation=90;" parent="1" vertex="1"><mxGeometry x="1770" y="320" width="50" height="20" as="geometry"/></mxCell><mxCell id="423" value="[1 .. 1]" style="text;html=1;align=center;verticalAlign=middle;resizable=0;points=[];autosize=1;strokeColor=none;rotation=90;" parent="1" vertex="1"><mxGeometry x="1950" y="580" width="50" height="20" as="geometry"/></mxCell><mxCell id="424" value="[1 .. 1]" style="text;html=1;align=center;verticalAlign=middle;resizable=0;points=[];autosize=1;strokeColor=none;" parent="1" vertex="1"><mxGeometry x="2043" y="230" width="50" height="20" as="geometry"/></mxCell><mxCell id="425" value="[1 .. 1]" style="text;html=1;align=center;verticalAlign=middle;resizable=0;points=[];autosize=1;strokeColor=none;" parent="1" vertex="1"><mxGeometry x="1620" y="230" width="50" height="20" as="geometry"/></mxCell><mxCell id="429" value="[1 .. 1]" style="text;html=1;align=center;verticalAlign=middle;resizable=0;points=[];autosize=1;strokeColor=none;rotation=-90;" parent="1" vertex="1"><mxGeometry x="730" y="142" width="50" height="20" as="geometry"/></mxCell><mxCell id="438" value="[1 .. 1]" style="text;html=1;align=center;verticalAlign=middle;resizable=0;points=[];autosize=1;strokeColor=none;rotation=-90;" parent="1" vertex="1"><mxGeometry x="760" y="1350" width="50" height="20" as="geometry"/></mxCell><mxCell id="439" value="[1 .. 1]" style="text;html=1;align=center;verticalAlign=middle;resizable=0;points=[];autosize=1;strokeColor=none;rotation=-90;" parent="1" vertex="1"><mxGeometry x="760" y="978" width="50" height="20" as="geometry"/></mxCell><mxCell id="445" value="[1 .. 1]" style="text;html=1;align=center;verticalAlign=middle;resizable=0;points=[];autosize=1;strokeColor=none;rotation=-90;" parent="1" vertex="1"><mxGeometry x="1200" y="1050" width="50" height="20" as="geometry"/></mxCell><mxCell id="446" value="[1 .. 1]" style="text;html=1;align=center;verticalAlign=middle;resizable=0;points=[];autosize=1;strokeColor=none;" parent="1" vertex="1"><mxGeometry x="680" y="1250" width="50" height="20" as="geometry"/></mxCell><mxCell id="448" value="[1 .. 1]" style="text;html=1;align=center;verticalAlign=middle;resizable=0;points=[];autosize=1;strokeColor=none;" parent="1" vertex="1"><mxGeometry x="354" y="920" width="50" height="20" as="geometry"/></mxCell><mxCell id="450" value="[1 .. 1]" style="text;html=1;align=center;verticalAlign=middle;resizable=0;points=[];autosize=1;strokeColor=none;" parent="1" vertex="1"><mxGeometry x="260" y="764" width="50" height="20" as="geometry"/></mxCell><mxCell id="451" value="[1 .. 1]" style="text;html=1;align=center;verticalAlign=middle;resizable=0;points=[];autosize=1;strokeColor=none;" parent="1" vertex="1"><mxGeometry x="304" y="610" width="50" height="20" as="geometry"/></mxCell><mxCell id="454" value="[1 .. 1]" style="text;html=1;align=center;verticalAlign=middle;resizable=0;points=[];autosize=1;strokeColor=none;rotation=0;" parent="1" vertex="1"><mxGeometry x="620" y="470" width="50" height="20" as="geometry"/></mxCell><mxCell id="455" value="[1 .. 1]" style="text;html=1;align=center;verticalAlign=middle;resizable=0;points=[];autosize=1;strokeColor=none;rotation=-90;" parent="1" vertex="1"><mxGeometry x="710" y="600" width="50" height="20" as="geometry"/></mxCell><mxCell id="456" value="[1 .. *]" style="text;html=1;align=center;verticalAlign=middle;resizable=0;points=[];autosize=1;strokeColor=none;" parent="1" vertex="1"><mxGeometry x="-210" y="557" width="50" height="20" as="geometry"/></mxCell><mxCell id="458" value="[1 .. *]" style="text;html=1;align=center;verticalAlign=middle;resizable=0;points=[];autosize=1;strokeColor=none;" parent="1" vertex="1"><mxGeometry x="-215" y="744" width="50" height="20" as="geometry"/></mxCell><mxCell id="459" value="[1 .. *]" style="text;html=1;align=center;verticalAlign=middle;resizable=0;points=[];autosize=1;strokeColor=none;" parent="1" vertex="1"><mxGeometry x="-370" y="1010" width="50" height="20" as="geometry"/></mxCell><mxCell id="460" value="[1 .. *]" style="text;html=1;align=center;verticalAlign=middle;resizable=0;points=[];autosize=1;strokeColor=none;" parent="1" vertex="1"><mxGeometry x="-380" y="906" width="50" height="20" as="geometry"/></mxCell><mxCell id="461" value="[1 ... *]" style="text;html=1;align=center;verticalAlign=middle;resizable=0;points=[];autosize=1;strokeColor=none;" parent="1" vertex="1"><mxGeometry x="-215" y="376" width="50" height="20" as="geometry"/></mxCell><mxCell id="462" value="[1 .. 1]" style="text;html=1;align=center;verticalAlign=middle;resizable=0;points=[];autosize=1;strokeColor=none;" parent="1" vertex="1"><mxGeometry x="280" y="880" width="50" height="20" as="geometry"/></mxCell><mxCell id="463" value="[1 .. 1]" style="text;html=1;align=center;verticalAlign=middle;resizable=0;points=[];autosize=1;strokeColor=none;rotation=-90;" parent="1" vertex="1"><mxGeometry x="-385" y="480" width="50" height="20" as="geometry"/></mxCell><mxCell id="464" value="[1 .. *]" style="text;html=1;align=center;verticalAlign=middle;resizable=0;points=[];autosize=1;strokeColor=none;rotation=-90;" parent="1" vertex="1"><mxGeometry x="-630" y="764" width="50" height="20" as="geometry"/></mxCell><mxCell id="468" value="[1 .. 1]" style="text;html=1;align=center;verticalAlign=middle;resizable=0;points=[];autosize=1;strokeColor=none;rotation=-90;" parent="1" vertex="1"><mxGeometry x="-385" y="1190" width="50" height="20" as="geometry"/></mxCell><mxCell id="469" value="[1 .. 1]" style="text;html=1;align=center;verticalAlign=middle;resizable=0;points=[];autosize=1;strokeColor=none;rotation=-90;" parent="1" vertex="1"><mxGeometry x="-385" y="1360" width="50" height="20" as="geometry"/></mxCell><mxCell id="471" value="[1 .. 1]" style="text;html=1;align=center;verticalAlign=middle;resizable=0;points=[];autosize=1;strokeColor=none;rotation=90;" parent="1" vertex="1"><mxGeometry x="-710" y="1370" width="50" height="20" as="geometry"/></mxCell><mxCell id="472" value="[1 .. 1]" style="text;html=1;align=center;verticalAlign=middle;resizable=0;points=[];autosize=1;strokeColor=none;rotation=-90;" parent="1" vertex="1"><mxGeometry x="-570" y="1460" width="50" height="20" as="geometry"/></mxCell><mxCell id="473" value="[1 .. 1]" style="text;html=1;align=center;verticalAlign=middle;resizable=0;points=[];autosize=1;strokeColor=none;rotation=90;" parent="1" vertex="1"><mxGeometry x="-690" y="1210" width="50" height="20" as="geometry"/></mxCell><mxCell id="474" value="[1 .. 1]" style="text;html=1;align=center;verticalAlign=middle;resizable=0;points=[];autosize=1;strokeColor=none;" parent="1" vertex="1"><mxGeometry x="1490" y="-48" width="50" height="20" as="geometry"/></mxCell><mxCell id="476" value="[1 .. 1]" style="text;html=1;align=center;verticalAlign=middle;resizable=0;points=[];autosize=1;strokeColor=none;rotation=-90;" parent="1" vertex="1"><mxGeometry x="-70" y="699" width="50" height="20" as="geometry"/></mxCell><mxCell id="482" value="&lt;p style=&quot;margin: 0px ; margin-top: 4px ; text-align: center&quot;&gt;&lt;i&gt;&amp;lt;&amp;lt;template&amp;gt;&amp;gt;&lt;/i&gt;&lt;br&gt;&lt;b&gt;Compute&lt;/b&gt;&lt;/p&gt;&lt;p style=&quot;margin: 0px ; margin-left: 4px&quot;&gt;&lt;br&gt;&lt;/p&gt;&lt;hr size=&quot;1&quot;&gt;&lt;p style=&quot;margin: 0px ; margin-left: 4px&quot;&gt;+ solve(equation: string): vector&amp;lt;string&amp;gt;&lt;br&gt;&lt;/p&gt;&lt;p style=&quot;margin: 0px ; margin-left: 4px&quot;&gt;+ solve(equations: vector&amp;lt;string&amp;gt;): vector&amp;lt;string&amp;gt;&lt;/p&gt;&lt;p style=&quot;margin: 0px ; margin-left: 4px&quot;&gt;+ solve(matrix1: vector&amp;lt;vector&amp;lt;double&amp;gt;&amp;gt;, matrix2: vector&amp;lt;vector&amp;lt;double&amp;gt;&amp;gt;, operations[3]: char, scalar1:double, scalar2: double): vector&amp;lt;vector&amp;lt;double&amp;gt;&amp;gt;&amp;nbsp;&lt;/p&gt;&lt;p style=&quot;margin: 0px ; margin-left: 4px&quot;&gt;+ solve(vector&amp;lt;double&amp;gt;, vector&amp;lt;double&amp;gt;, string): string&lt;/p&gt;&lt;p style=&quot;margin: 0px ; margin-left: 4px&quot;&gt;&lt;br&gt;&lt;/p&gt;" style="verticalAlign=top;align=left;overflow=fill;fontSize=12;fontFamily=Helvetica;html=1;shadow=0;glass=0;fillColor=none;" parent="1" vertex="1"><mxGeometry x="350" y="250" width="830" height="120" as="geometry"/></mxCell><mxCell id="483" value="" style="endArrow=diamondThin;endFill=0;endSize=24;html=1;exitX=0.5;exitY=0;exitDx=0;exitDy=0;entryX=0.291;entryY=1.01;entryDx=0;entryDy=0;entryPerimeter=0;" parent="1" source="482" target="33" edge="1"><mxGeometry width="160" relative="1" as="geometry"><mxPoint x="920" y="260" as="sourcePoint"/><mxPoint x="980" y="-40" as="targetPoint"/><Array as="points"><mxPoint x="765" y="80"/></Array></mxGeometry></mxCell><mxCell id="492" value="[1 .. 1]" style="text;html=1;align=center;verticalAlign=middle;resizable=0;points=[];autosize=1;strokeColor=none;" parent="1" vertex="1"><mxGeometry x="-20" y="1178" width="50" height="20" as="geometry"/></mxCell><mxCell id="523" style="edgeStyle=orthogonalEdgeStyle;rounded=0;orthogonalLoop=1;jettySize=auto;html=1;entryX=-0.001;entryY=0.911;entryDx=0;entryDy=0;entryPerimeter=0;" parent="1" edge="1"><mxGeometry relative="1" as="geometry"><Array as="points"><mxPoint x="2157" y="-20"/></Array><mxPoint x="1910" y="-20" as="sourcePoint"/><mxPoint x="2159.76" y="-19.935999999999922" as="targetPoint"/></mxGeometry></mxCell><mxCell id="528" value="[1 .. 1]" style="text;html=1;align=center;verticalAlign=middle;resizable=0;points=[];autosize=1;strokeColor=none;rotation=0;" parent="1" vertex="1"><mxGeometry x="2000" y="-48" width="50" height="20" as="geometry"/></mxCell><mxCell id="529" style="edgeStyle=orthogonalEdgeStyle;rounded=0;orthogonalLoop=1;jettySize=auto;html=1;exitX=0.75;exitY=0;exitDx=0;exitDy=0;" parent="1" source="74" target="533" edge="1"><mxGeometry relative="1" as="geometry"><Array as="points"><mxPoint x="2050" y="1130"/><mxPoint x="2305" y="1130"/></Array><mxPoint x="2090" y="1170" as="sourcePoint"/><mxPoint x="2305" y="1028" as="targetPoint"/></mxGeometry></mxCell><mxCell id="530" value="button" style="swimlane;fontStyle=1;align=center;verticalAlign=top;childLayout=stackLayout;horizontal=1;startSize=26;horizontalStack=0;resizeParent=1;resizeParentMax=0;resizeLast=0;collapsible=1;marginBottom=0;" parent="1" vertex="1"><mxGeometry x="2110" y="826" width="390" height="100" as="geometry"/></mxCell><mxCell id="532" value="" style="line;strokeWidth=1;fillColor=none;align=left;verticalAlign=middle;spacingTop=-1;spacingLeft=3;spacingRight=3;rotatable=0;labelPosition=right;points=[];portConstraint=eastwest;" parent="530" vertex="1"><mxGeometry y="26" width="390" height="20" as="geometry"/></mxCell><mxCell id="533" value="+ sizeHint(): QSize&#10;+ button(text: QString, parent: QWidget): constructor &#10;" style="text;strokeColor=none;fillColor=none;align=left;verticalAlign=top;spacingLeft=4;spacingRight=4;overflow=hidden;rotatable=0;points=[[0,0.5],[1,0.5]];portConstraint=eastwest;" parent="530" vertex="1"><mxGeometry y="46" width="390" height="54" as="geometry"/></mxCell><mxCell id="534" value="[1 .. *]" style="text;html=1;align=center;verticalAlign=middle;resizable=0;points=[];autosize=1;strokeColor=none;rotation=0;" parent="1" vertex="1"><mxGeometry x="2170" y="1110" width="50" height="20" as="geometry"/></mxCell><mxCell id="539" style="edgeStyle=none;html=1;exitX=0;exitY=0.5;exitDx=0;exitDy=0;entryX=1.006;entryY=0.272;entryDx=0;entryDy=0;entryPerimeter=0;" parent="1" source="51" target="173" edge="1"><mxGeometry relative="1" as="geometry"/></mxCell><mxCell id="541" style="edgeStyle=none;html=1;entryX=1.012;entryY=0.48;entryDx=0;entryDy=0;entryPerimeter=0;" parent="1" source="373" target="175" edge="1"><mxGeometry relative="1" as="geometry"/></mxCell><mxCell id="543" style="edgeStyle=orthogonalEdgeStyle;rounded=0;orthogonalLoop=1;jettySize=auto;html=1;exitX=0.494;exitY=1.01;exitDx=0;exitDy=0;exitPerimeter=0;" parent="1" source="88" edge="1"><mxGeometry relative="1" as="geometry"><Array as="points"><mxPoint x="2305" y="653"/></Array><mxPoint x="2390" y="626" as="sourcePoint"/><mxPoint x="2305" y="826" as="targetPoint"/></mxGeometry></mxCell><mxCell id="544" value="[1 .. *]" style="text;html=1;align=center;verticalAlign=middle;resizable=0;points=[];autosize=1;strokeColor=none;rotation=90;" parent="1" vertex="1"><mxGeometry x="2300" y="724" width="50" height="20" as="geometry"/></mxCell><mxCell id="548" value="qcustomplot" style="swimlane;fontStyle=1;align=center;verticalAlign=top;childLayout=stackLayout;horizontal=1;startSize=26;horizontalStack=0;resizeParent=1;resizeParentMax=0;resizeLast=0;collapsible=1;marginBottom=0;" parent="1" vertex="1"><mxGeometry x="2660" y="280" width="250" height="46" as="geometry"/></mxCell><mxCell id="550" value="" style="line;strokeWidth=1;fillColor=none;align=left;verticalAlign=middle;spacingTop=-1;spacingLeft=3;spacingRight=3;rotatable=0;labelPosition=right;points=[];portConstraint=eastwest;" parent="548" vertex="1"><mxGeometry y="26" width="250" height="20" as="geometry"/></mxCell><mxCell id="552" style="edgeStyle=orthogonalEdgeStyle;rounded=0;orthogonalLoop=1;jettySize=auto;html=1;" parent="1" edge="1"><mxGeometry relative="1" as="geometry"><Array as="points"><mxPoint x="2630" y="309"/><mxPoint x="2670" y="309"/></Array><mxPoint x="2450" y="309.5" as="sourcePoint"/><mxPoint x="2660" y="309" as="targetPoint"/></mxGeometry></mxCell><mxCell id="553" value="[1 .. 1]" style="text;html=1;align=center;verticalAlign=middle;resizable=0;points=[];autosize=1;strokeColor=none;" parent="1" vertex="1"><mxGeometry x="2530" y="280" width="50" height="20" as="geometry"/></mxCell><mxCell id="554" value="History" style="swimlane;fontStyle=1;align=center;verticalAlign=top;childLayout=stackLayout;horizontal=1;startSize=26;horizontalStack=0;resizeParent=1;resizeParentMax=0;resizeLast=0;collapsible=1;marginBottom=0;" parent="1" vertex="1"><mxGeometry x="1280" y="442" width="280" height="180" as="geometry"/></mxCell><mxCell id="555" value="- length: int&#10;- historyMap: unordered_map&lt;int, vector&lt;string&gt;&gt;&#10; &#10;" style="text;strokeColor=none;fillColor=none;align=left;verticalAlign=top;spacingLeft=4;spacingRight=4;overflow=hidden;rotatable=0;points=[[0,0.5],[1,0.5]];portConstraint=eastwest;" parent="554" vertex="1"><mxGeometry y="26" width="280" height="34" as="geometry"/></mxCell><mxCell id="556" value="" style="line;strokeWidth=1;fillColor=none;align=left;verticalAlign=middle;spacingTop=-1;spacingLeft=3;spacingRight=3;rotatable=0;labelPosition=right;points=[];portConstraint=eastwest;" parent="554" vertex="1"><mxGeometry y="60" width="280" height="8" as="geometry"/></mxCell><mxCell id="557" value="- History(): constructor&#10;+  ~History(): destructor&#10;- deallocateMap(): void  &#10;+ getInstance(): History&#10;+ logHistory(steps: vector&lt;string&gt;): void&#10;+ retrieveHistory(index: int): vector&lt;string&gt; &#10;+ size(): int  &#10; " style="text;strokeColor=none;fillColor=none;align=left;verticalAlign=top;spacingLeft=4;spacingRight=4;overflow=hidden;rotatable=0;points=[[0,0.5],[1,0.5]];portConstraint=eastwest;" parent="554" vertex="1"><mxGeometry y="68" width="280" height="112" as="geometry"/></mxCell><mxCell id="558" style="edgeStyle=orthogonalEdgeStyle;rounded=0;orthogonalLoop=1;jettySize=auto;html=1;" parent="1" edge="1"><mxGeometry relative="1" as="geometry"><Array as="points"><mxPoint x="1419.76" y="442"/></Array><mxPoint x="1419.76" y="432" as="sourcePoint"/><mxPoint x="1420" y="350" as="targetPoint"/></mxGeometry></mxCell><mxCell id="560" value="[1 .. 1]" style="text;html=1;align=center;verticalAlign=middle;resizable=0;points=[];autosize=1;strokeColor=none;rotation=-90;" parent="1" vertex="1"><mxGeometry x="1380" y="390" width="50" height="20" as="geometry"/></mxCell><mxCell id="561" style="edgeStyle=orthogonalEdgeStyle;rounded=0;orthogonalLoop=1;jettySize=auto;html=1;endArrow=classic;endFill=1;entryX=1.006;entryY=0.69;entryDx=0;entryDy=0;entryPerimeter=0;" parent="1" target="49" edge="1"><mxGeometry relative="1" as="geometry"><mxPoint x="110" y="410" as="targetPoint"/><Array as="points"><mxPoint x="490" y="409"/></Array><mxPoint x="490" y="530" as="sourcePoint"/></mxGeometry></mxCell><mxCell id="562" value="[1 .. 1]" style="text;html=1;align=center;verticalAlign=middle;resizable=0;points=[];autosize=1;strokeColor=none;" parent="1" vertex="1"><mxGeometry x="250" y="390" width="50" height="20" as="geometry"/></mxCell><mxCell id="564" value="SetsGUI" style="swimlane;fontStyle=1;align=center;verticalAlign=top;childLayout=stackLayout;horizontal=1;startSize=26;horizontalStack=0;resizeParent=1;resizeParentMax=0;resizeLast=0;collapsible=1;marginBottom=0;" parent="1" vertex="1"><mxGeometry x="2160" y="-230" width="220" height="350" as="geometry"/></mxCell><mxCell id="565" value="- outputBox: QLineEdit&#10;- firstSet: QLineEdit&#10;- secondSet: QLineEdit&#10;- operators: QLineEdit&#10;- unionButton: QPushButton&#10;- intersectionButton: QPushButton&#10;- negButton: QPushButton&#10;- minusButton: QPushButton&#10;- changeSetButton: QPushButton&#10;- clearSetButton: QPushButton&#10;- solveButton: QPushButton&#10;- digitButtons[10]: QPushButton&#10;- commaButton: QPushButton&#10;- pointButton: QPushButton&#10;- isFirstSet: bool" style="text;strokeColor=none;fillColor=none;align=left;verticalAlign=top;spacingLeft=4;spacingRight=4;overflow=hidden;rotatable=0;points=[[0,0.5],[1,0.5]];portConstraint=eastwest;" parent="564" vertex="1"><mxGeometry y="26" width="220" height="224" as="geometry"/></mxCell><mxCell id="566" value="" style="line;strokeWidth=1;fillColor=none;align=left;verticalAlign=middle;spacingTop=-1;spacingLeft=3;spacingRight=3;rotatable=0;labelPosition=right;points=[];portConstraint=eastwest;" parent="564" vertex="1"><mxGeometry y="250" width="220" height="8" as="geometry"/></mxCell><mxCell id="567" value="- digitClicked(): void &#10;- operatorClicked(): void &#10;- changeSetClicked(): void  &#10;- clearSetClicked(): void  &#10;- solveClicked(): void&#10;- getSetValues(string): vector&lt;double&gt;" style="text;strokeColor=none;fillColor=none;align=left;verticalAlign=top;spacingLeft=4;spacingRight=4;overflow=hidden;rotatable=0;points=[[0,0.5],[1,0.5]];portConstraint=eastwest;" parent="564" vertex="1"><mxGeometry y="258" width="220" height="92" as="geometry"/></mxCell><mxCell id="568" style="edgeStyle=orthogonalEdgeStyle;rounded=0;orthogonalLoop=1;jettySize=auto;html=1;dashed=1;endArrow=block;endFill=0;exitX=1;exitY=0.225;exitDx=0;exitDy=0;exitPerimeter=0;entryX=0;entryY=0.25;entryDx=0;entryDy=0;" parent="1" source="161" target="331" edge="1"><mxGeometry relative="1" as="geometry"><Array as="points"><mxPoint x="-770" y="1100"/><mxPoint x="-770" y="1262"/></Array><mxPoint x="-610" y="1300" as="targetPoint"/><mxPoint x="-920" y="1310" as="sourcePoint"/></mxGeometry></mxCell><mxCell id="569" value="ComputeFunction" style="swimlane;fontStyle=1;align=center;verticalAlign=top;childLayout=stackLayout;horizontal=1;startSize=26;horizontalStack=0;resizeParent=1;resizeParentMax=0;resizeLast=0;collapsible=1;marginBottom=0;" vertex="1" parent="1"><mxGeometry x="414" y="622" width="266" height="66" as="geometry"/></mxCell><mxCell id="570" value="" style="line;strokeWidth=1;fillColor=none;align=left;verticalAlign=middle;spacingTop=-1;spacingLeft=3;spacingRight=3;rotatable=0;labelPosition=right;points=[];portConstraint=eastwest;" vertex="1" parent="569"><mxGeometry y="26" width="266" height="8" as="geometry"/></mxCell><mxCell id="571" value="+ solve(equation: string, std::string): double" style="text;strokeColor=none;fillColor=none;align=left;verticalAlign=top;spacingLeft=4;spacingRight=4;overflow=hidden;rotatable=0;points=[[0,0.5],[1,0.5]];portConstraint=eastwest;" vertex="1" parent="569"><mxGeometry y="34" width="266" height="32" as="geometry"/></mxCell></root></mxGraphModel></diagram></mxfile>